PathFileType	4	(X/Y/Z)	C:\Users\Basilio\Documents\Thesis Gigler\squatting_fais\c3dfiles\041\SLS_pre_front2\markers_experimental.trc
DataRate	CameraRate	NumFrames	NumMarkers	Units	OrigDataRate	OrigDataStartFrame	OrigNumFrames
200.000000	200.000000	4	62	mm	200.000000	356	1425
Frame#	Time	FHD			LBHD			RBHD			C7			T10			CLAV			LSHO			LUUPA			LMUPA			LDUPA			LLEP			LMEP			LRAD			LUL			LRFIN			RSHO			RUPA1			RMUPA			RDUPA			RLEP			RMEP			RRAD			RUL			RUFIN			LASI			RASI			USACR			LSACR			RSACR			LTHI1			LTHI2			LTHI3			LTHI4			LLFC			LMFC			LTIB1			LTIB2			LTIB3			LTIB4			LLMAL			LMMAL			LHEE			LMT1			LMT2			LMT5			RTHI			RTHI2			RTHI3			RTHI4			RLFC			RMFC			RTIB1			RTIB2			RTIB3			RTIB4			RLMAL			RMMAL			RHEE			RMT1			RMT2			RMT5			*61			
		X1	Y1	Z1	X2	Y2	Z2	X3	Y3	Z3	X4	Y4	Z4	X5	Y5	Z5	X6	Y6	Z6	X7	Y7	Z7	X8	Y8	Z8	X9	Y9	Z9	X10	Y10	Z10	X11	Y11	Z11	X12	Y12	Z12	X13	Y13	Z13	X14	Y14	Z14	X15	Y15	Z15	X16	Y16	Z16	X17	Y17	Z17	X18	Y18	Z18	X19	Y19	Z19	X20	Y20	Z20	X21	Y21	Z21	X22	Y22	Z22	X23	Y23	Z23	X24	Y24	Z24	X25	Y25	Z25	X26	Y26	Z26	X27	Y27	Z27	X28	Y28	Z28	X29	Y29	Z29	X30	Y30	Z30	X31	Y31	Z31	X32	Y32	Z32	X33	Y33	Z33	X34	Y34	Z34	X35	Y35	Z35	X36	Y36	Z36	X37	Y37	Z37	X38	Y38	Z38	X39	Y39	Z39	X40	Y40	Z40	X41	Y41	Z41	X42	Y42	Z42	X43	Y43	Z43	X44	Y44	Z44	X45	Y45	Z45	X46	Y46	Z46	X47	Y47	Z47	X48	Y48	Z48	X49	Y49	Z49	X50	Y50	Z50	X51	Y51	Z51	X52	Y52	Z52	X53	Y53	Z53	X54	Y54	Z54	X55	Y55	Z55	X56	Y56	Z56	X57	Y57	Z57	X58	Y58	Z58	X59	Y59	Z59	X60	Y60	Z60	X61	Y61	Z61	X62	Y62	Z62	

357	1.78	-302.9824523925782	1782.488525390625	-1097.535034179688	-469.6683959960939	1693.318359375	-1172.125732421875	-452.0003967285157	1702.3896484375	-1020.611083984375	-494.599822998047	1540.15673828125	-1101.697875976563	-485.9407958984376	1228.154907226563	-1067.039428710938	-334.0647277832032	1502.953125	-1100.956420898438	-424.9479370117189	1542.44970703125	-1250.52490234375	-335.6250915527344	1508.6875	-1390.19287109375	-292.7588195800782	1533.0400390625	-1382.837158203125	-284.0350341796876	1506.424072265625	-1437.223388671875	-240.4044647216797	1506.243041992188	-1461.067138671875	-192.6832122802735	1445.930053710938	-1423.938720703125	34.13024139404298	1560.902709960938	-1497.581665039063	7.935296535491945	1551.86962890625	-1565.459838867188	91.82564544677736	1606.325073242188	-1524.351806640625	-420.1173400878907	1573.120361328125	-972.0208129882815	-286.9899597167969	1563.717407226563	-840.7227783203127	-265.4280395507813	1591.982177734375	-877.0649414062502	-220.2863464355469	1587.460327148438	-838.332458496094	-175.2757263183594	1593.403686523438	-835.1812133789065	-150.4666595458985	1514.692993164063	-860.3738403320315	92.69333648681642	1613.692016601563	-880.290466308594	85.11609649658205	1620.691528320313	-804.601989746094	171.5872802734375	1640.2373046875	-877.419372558594	-301.9158325195313	1048.153564453125	-1167.120483398438	-306.4007263183594	1067.014770507813	-943.2090454101565	-488.0653381347657	1112.765991210938	-1058.067993164063	-499.2410278320314	1083.33447265625	-1082.71630859375	-503.083709716797	1087.293701171875	-1028.055786132813	-384.9313354492189	824.9245605468752	-1214.080444335938	-335.9842224121094	756.2214355468751	-1204.770385742188	-290.9188842773438	769.0220947265627	-1197.255615234375	-353.6813354492188	699.5798339843751	-1188.677856445313	-306.4617919921876	530.0592651367189	-1157.947265625	-295.8430786132813	522.7473144531251	-1040.050903320313	-289.3061828613282	342.4096374511719	-1084.621337890625	-340.1508178710938	299.4982604980469	-1143.272094726563	-303.4953918457032	293.0505676269532	-1117.366455078125	-313.4385986328126	220.7102355957032	-1077.019165039063	-382.6617431640626	130.9564056396485	-1108.287231445313	-343.5820312500001	139.5831146240235	-1028.175415039063	-448.7156066894532	116.7173843383789	-1063.8212890625	-242.8839263916016	64.43312072753908	-1039.630126953125	-236.1567535400391	58.78543090820314	-1085.471923828125	-286.0112609863282	44.15533447265626	-1137.736328125	-279.7277526855469	824.5430908203127	-849.641052246094	-215.3523254394532	810.0679931640627	-850.8005981445315	-191.9113464355469	832.116638183594	-861.0051269531252	-184.6151885986328	730.8402709960939	-859.944030761719	-101.6558837890625	633.7363281250001	-857.4050292968752	-75.79536437988283	623.9066162109376	-973.714782714844	32.75800323486329	528.2493896484376	-855.5712890625002	19.69320297241211	416.9878234863282	-835.4141235351565	56.65424728393556	445.3339233398439	-836.9561157226565	105.9504470825196	423.0108337402345	-861.3081665039065	143.6782989501953	295.5494995117188	-839.616882324219	155.4009857177735	327.9920043945313	-920.277282714844	129.9408569335938	225.4827728271485	-889.1343383789065	292.1758117675782	369.1063537597657	-899.1202392578127	288.9365844726563	376.9526977539063	-847.4121704101565	272.6944580078126	331.1416931152344	-800.383483886719	-4217.039062500001	853.114196777344	-3944.673339843751	
358	1.785	-302.9868774414063	1782.4365234375	-1097.787841796875	-469.7368469238282	1693.331176757813	-1172.185913085938	-451.9641113281251	1702.377685546875	-1020.673034667969	-494.6091308593751	1540.164672851563	-1101.699951171875	-485.904510498047	1228.124145507813	-1067.074462890625	-334.1292419433594	1502.926025390625	-1101.021118164063	-425.1106567382814	1542.307983398438	-1250.61181640625	-335.9432678222657	1508.32421875	-1390.437744140625	-292.9418640136719	1532.726196289063	-1383.179321289063	-284.1129760742188	1505.944702148438	-1437.361938476563	-240.9644012451172	1505.826782226563	-1461.531860351563	-193.1265716552735	1445.427368164063	-1424.371948242188	33.82885742187501	1560.276123046875	-1498.3974609375	7.114796161651613	1551.288940429688	-1566.148803710938	91.6681365966797	1605.539306640625	-1525.312866210938	-420.1060485839845	1573.141845703125	-972.1546630859377	-287.0599975585938	1563.548461914063	-840.8446044921877	-265.3641052246094	1592.011352539063	-877.1839599609377	-220.3046417236329	1587.481811523438	-838.4069824218752	-175.2025146484375	1593.425048828125	-835.247009277344	-150.4660034179688	1514.666625976563	-860.4927978515627	92.86623382568361	1613.623901367188	-879.9458618164065	84.97540283203126	1620.774047851563	-804.3890380859377	171.7573394775391	1640.209106445313	-876.7503051757815	-301.7918090820313	1048.142944335938	-1167.038330078125	-306.4390869140626	1067.15185546875	-943.1492919921877	-488.0792846679689	1112.726806640625	-1058.168701171875	-499.1236877441407	1083.250122070313	-1082.779052734375	-503.0469360351564	1087.260986328125	-1028.123291015625	-384.6565551757814	824.774353027344	-1214.052001953125	-335.7284851074219	756.1636962890626	-1204.70654296875	-290.5526123046876	768.8472900390627	-1197.130859375	-353.4962768554688	699.5115356445314	-1188.687377929688	-306.2837524414063	530.0388183593751	-1157.824462890625	-295.6709594726563	522.7878417968751	-1039.848876953125	-289.0706787109376	342.3532104492188	-1084.49169921875	-339.9177246093751	299.4553527832032	-1143.135986328125	-303.3026428222657	292.6972351074219	-1116.962036132813	-313.3049926757813	220.6323547363282	-1076.952514648438	-382.5752563476563	130.9805603027344	-1108.234497070313	-343.5458679199219	139.5994110107422	-1028.08544921875	-448.506072998047	116.5352172851563	-1063.889282226563	-242.8956909179688	64.4077835083008	-1039.590698242188	-236.1833953857422	58.80068206787111	-1085.408081054688	-285.9852905273438	44.16982650756837	-1137.707641601563	-279.2235412597657	824.6857910156252	-849.789978027344	-214.8525543212891	810.4487915039065	-850.8828125000002	-191.7749938964844	832.3679199218752	-861.0457763671877	-183.9916534423828	731.3068847656251	-860.2050781250002	-101.0015029907227	634.2612304687501	-857.594421386719	-75.26660919189455	624.5177612304689	-973.7988281250002	33.93859863281251	528.6995239257814	-856.1009521484377	20.71395301818848	417.644012451172	-835.6636352539065	57.76150512695314	446.1461791992189	-837.4121093750002	106.9339065551758	423.7169189453126	-861.5523681640627	145.0837860107422	296.5508422851563	-840.1169433593752	156.5251159667969	328.9695129394532	-920.7423095703127	131.1111602783203	226.6507263183594	-889.6690673828127	293.3464660644532	370.2544555664063	-899.5686035156252	290.5558776855469	377.6831665039063	-847.5598754882815	274.0861206054688	332.1162414550782	-800.873718261719	-4217.522949218751	853.2449340820315	-3944.694824218751	
359	1.79	-302.5112915039063	1782.121215820313	-1097.837036132813	-469.6790466308595	1693.293823242188	-1172.214599609375	-451.9352111816407	1702.364379882813	-1020.736450195313	-494.5987854003907	1540.137451171875	-1101.778442382813	-485.8439025878907	1228.080322265625	-1067.110961914063	-333.9272460937501	1502.949951171875	-1101.225952148438	-425.2705078125001	1542.1923828125	-1250.729736328125	-336.2842102050782	1507.871948242188	-1390.780029296875	-293.2584533691407	1532.387084960938	-1383.545288085938	-284.6291809082032	1505.59619140625	-1437.844604492188	-241.3005676269532	1505.330078125	-1461.780883789063	-193.4480590820313	1444.964599609375	-1424.798950195313	33.43035507202149	1559.619384765625	-1499.362548828125	6.505191326141359	1550.700317382813	-1566.9599609375	91.30554199218751	1604.63671875	-1526.166625976563	-420.1218566894532	1573.194091796875	-972.249206542969	-286.9377136230469	1563.784301757813	-840.9003906250002	-265.3309936523438	1592.054321289063	-877.2876586914065	-220.2957000732422	1587.539794921875	-838.452331542969	-175.1068572998047	1593.514038085938	-835.3804321289065	-150.3348083496094	1514.806640625	-860.7634887695315	92.9050750732422	1613.516479492188	-879.593933105469	84.90490722656251	1620.728271484375	-804.1008911132815	171.8640747070313	1639.934204101563	-876.3988037109377	-301.7055358886719	1048.149169921875	-1166.943115234375	-306.4329223632813	1067.369750976563	-943.0681152343752	-487.9693908691407	1112.630615234375	-1058.201538085938	-498.7573852539064	1083.096435546875	-1082.866455078125	-503.099578857422	1087.2802734375	-1028.2021484375	-384.3451538085939	824.7198486328127	-1214.002685546875	-335.4835205078126	756.1223754882814	-1204.659301757813	-289.7709960937501	768.498474121094	-1196.91015625	-353.1060485839844	699.4068603515626	-1188.604248046875	-305.9280395507813	530.0238647460939	-1157.746948242188	-295.4812622070313	522.8417968750001	-1039.701904296875	-288.7517395019532	342.1285095214844	-1084.4091796875	-340.0118713378907	299.4903259277344	-1142.945190429688	-303.1602783203126	292.4900817871094	-1116.812744140625	-313.1594848632813	220.5400848388672	-1076.825561523438	-382.5053405761719	131.0513916015625	-1108.0947265625	-343.5529785156251	139.59228515625	-1027.922485351563	-448.654022216797	116.7528305053711	-1063.728393554688	-242.9422760009766	64.32683563232423	-1039.541748046875	-236.1935119628907	58.78260040283205	-1085.30224609375	-285.5485839843751	43.95532989501954	-1137.48486328125	-278.8875732421876	824.8659667968752	-849.8687744140627	-214.4664611816407	810.591247558594	-851.1002197265627	-191.4526672363282	832.6870727539065	-861.2191162109377	-183.5985412597657	731.7234497070314	-860.2551269531252	-100.311996459961	634.6804199218751	-857.8115234375002	-74.44492340087892	625.0399780273439	-974.1481933593752	34.77459716796876	529.4155883789064	-856.559753417969	21.60510635375977	418.1065063476564	-835.9440917968752	58.65701293945314	446.986541748047	-837.600280761719	107.8161010742188	424.5576171875001	-862.033386230469	146.2598876953125	297.3750610351563	-840.4326782226565	157.6235656738282	329.7456054687501	-921.2312622070315	132.4911041259766	227.2188262939454	-889.948181152344	294.1739807128907	371.2793273925782	-900.1079711914065	291.4051818847657	378.9335021972657	-848.0316162109377	275.0596618652344	333.2642517089844	-801.0693969726565	-4216.686035156251	853.1488037109377	-3944.657226562501	
360	1.795	-302.4755554199219	1782.037353515625	-1097.844482421875	-469.6468811035157	1693.296875	-1172.255126953125	-451.8766174316407	1702.302978515625	-1020.706481933594	-494.5297851562501	1540.157348632813	-1101.776611328125	-485.8154296875001	1228.073120117188	-1067.148559570313	-329.5223388671876	1503.671264648438	-1102.204956054688	-425.3084411621095	1542.034912109375	-1250.867919921875	-336.4757385253907	1507.46484375	-1391.023193359375	-293.4032287597657	1532.159301757813	-1383.905151367188	-285.0507812500001	1505.465454101563	-1438.241088867188	-241.7164764404297	1504.853881835938	-1462.028930664063	-193.6818542480469	1444.6767578125	-1425.181030273438	33.10678863525391	1558.966430664063	-1500.209228515625	6.060144424438478	1550.03125	-1567.787109375	91.2455520629883	1603.69091796875	-1527.104248046875	-420.0910644531251	1573.217895507813	-972.3536376953127	-286.9398498535157	1563.777221679688	-841.0234375000002	-265.2296447753907	1592.10986328125	-877.3803710937502	-220.2891235351563	1587.602172851563	-838.479919433594	-175.1182098388672	1593.567504882813	-835.5005493164065	-150.3533325195313	1514.806396484375	-860.8671875000002	92.93897247314455	1613.475708007813	-879.2591552734377	84.73622131347658	1620.741577148438	-803.9061279296877	172.0956115722657	1639.837158203125	-875.964050292969	-301.6145629882813	1048.098022460938	-1166.8056640625	-306.4490966796876	1067.508666992188	-943.0043945312502	-487.8843688964845	1112.577880859375	-1058.32958984375	-498.8194580078126	1083.065795898438	-1083.01904296875	-502.9593811035157	1087.161499023438	-1028.311157226563	-384.0274353027345	824.7041625976565	-1213.951782226563	-335.2258300781251	756.0244750976564	-1204.515991210938	-289.5414123535157	768.4162597656252	-1196.747436523438	-352.7455444335938	699.3571166992189	-1188.580200195313	-305.5723266601563	529.9262084960939	-1157.654907226563	-295.2397766113282	522.7029418945314	-1039.587768554688	-288.5503540039063	342.1045227050782	-1084.19384765625	-340.0486755371094	299.3198852539063	-1142.925170898438	-302.9371032714844	292.5066528320313	-1116.781127929688	-313.0203247070313	220.5653076171876	-1076.754028320313	-382.4366760253907	131.1094665527344	-1107.997436523438	-343.5750732421876	139.5590362548828	-1027.691162109375	-448.4180297851564	116.4549713134766	-1063.648193359375	-242.9849243164063	64.22999572753908	-1039.443969726563	-236.1909332275391	58.78601074218751	-1085.253784179688	-285.5318908691407	44.09391403198243	-1137.4765625	-278.7025756835938	824.987976074219	-849.7943115234377	-214.1249237060547	810.779724121094	-851.2263793945315	-191.0577392578125	833.078063964844	-861.320739746094	-183.2818450927735	731.9574584960939	-860.2998657226565	-99.74076843261722	635.0718383789064	-857.9536743164065	-73.72935485839845	625.4575805664064	-974.530212402344	35.72323226928712	530.2426147460939	-857.2166137695315	22.50965309143067	418.9276428222657	-836.324157714844	59.49598312377931	447.5991210937501	-837.9544067382815	109.015007019043	425.2537536621095	-862.7177734375002	147.493148803711	298.0419006347657	-841.0359497070315	158.7157287597657	330.4844970703126	-921.701110839844	134.3696899414063	227.4843292236329	-890.642517089844	295.2081298828126	372.4281616210938	-900.6509399414065	292.7956237792969	379.7272033691407	-848.6892700195315	276.1933288574219	334.2956237792969	-801.606872558594	-4217.517578125001	853.2993774414065	-3944.718750000001	
